<svg width="32" height="33" viewBox="0 0 32 33" fill="none" xmlns="http://www.w3.org/2000/svg">
<g clip-path="url(#clip0_58_1529)">
<path d="M16 0.150635C11.6533 0.150635 11.1107 0.170618 9.404 0.246554C7.7 0.326487 6.54 0.594262 5.52 0.98993C4.468 1.39759 3.57467 1.94513 2.68533 2.83371C1.796 3.72231 1.24667 4.61356 0.84 5.666C0.444 6.68515 0.174667 7.84418 0.096 9.54675C0.016 11.252 0 11.7942 0 16.1372C0 20.4803 0.02 21.0224 0.096 22.7277C0.176 24.429 0.444 25.5893 0.84 26.6084C1.248 27.6582 1.796 28.5521 2.68533 29.4407C3.57467 30.328 4.46667 30.8781 5.52 31.2845C6.54133 31.6789 7.70133 31.9492 9.404 32.0279C11.1107 32.1078 11.6533 32.1238 16 32.1238C20.3467 32.1238 20.8893 32.1038 22.596 32.0279C24.2987 31.9479 25.46 31.6789 26.48 31.2845C27.5307 30.8768 28.4253 30.328 29.3147 29.4407C30.2027 28.5521 30.7533 27.6622 31.16 26.6084C31.5547 25.5893 31.8253 24.429 31.904 22.7277C31.984 21.0224 32 20.4803 32 16.1372C32 11.7942 31.98 11.252 31.904 9.54675C31.824 7.8455 31.5547 6.68382 31.16 5.666C30.752 4.61489 30.2027 3.72231 29.3147 2.83371C28.4253 1.94513 27.5347 1.39626 26.48 0.98993C25.46 0.594262 24.2987 0.325155 22.596 0.246554C20.8893 0.166621 20.3467 0.150635 16 0.150635ZM16 3.02822C20.2707 3.02822 20.78 3.04953 22.4667 3.12281C24.0267 3.19608 24.8733 3.45453 25.436 3.67568C26.1853 3.96476 26.716 4.31114 27.2787 4.86934C27.8373 5.42887 28.184 5.96043 28.4733 6.70913C28.692 7.27133 28.9533 8.11728 29.024 9.67597C29.1 11.3625 29.1173 11.8688 29.1173 16.1372C29.1173 20.4056 29.0973 20.9132 29.0187 22.5985C28.9373 24.1572 28.6773 25.0031 28.4573 25.5653C28.1587 26.314 27.8187 26.8442 27.2587 27.4064C26.7 27.9646 26.16 28.311 25.4187 28.6C24.8587 28.8186 23.9987 29.0796 22.4387 29.1503C20.74 29.2262 20.24 29.2435 15.96 29.2435C11.6787 29.2435 11.1787 29.2235 9.48133 29.145C7.92 29.0637 7.06 28.8039 6.5 28.5841C5.74133 28.2857 5.22 27.946 4.66133 27.3865C4.1 26.8282 3.74133 26.2887 3.46133 25.548C3.24133 24.9885 2.98267 24.1292 2.90133 22.5705C2.84133 20.8919 2.82 20.3737 2.82 16.1172C2.82 11.8595 2.84133 11.3399 2.90133 9.64134C2.98267 8.08264 3.24133 7.2247 3.46133 6.66516C3.74133 5.9058 4.1 5.38624 4.66133 4.82538C5.22 4.26718 5.74133 3.90748 6.5 3.62904C7.06 3.4079 7.90133 3.14812 9.46133 3.06819C11.1613 3.00824 11.6613 2.98825 15.94 2.98825L16 3.02822ZM16 7.9281C11.46 7.9281 7.784 11.605 7.784 16.1372C7.784 20.6734 11.464 24.3463 16 24.3463C20.54 24.3463 24.216 20.6694 24.216 16.1372C24.216 11.601 20.536 7.9281 16 7.9281ZM16 21.466C13.0533 21.466 10.6667 19.0814 10.6667 16.1372C10.6667 13.193 13.0533 10.8084 16 10.8084C18.9467 10.8084 21.3333 13.193 21.3333 16.1372C21.3333 19.0814 18.9467 21.466 16 21.466ZM26.4613 7.60438C26.4613 8.66349 25.6 9.52277 24.5413 9.52277C23.4813 9.52277 22.6213 8.66216 22.6213 7.60438C22.6213 6.54659 23.4827 5.68732 24.5413 5.68732C25.5987 5.68599 26.4613 6.54659 26.4613 7.60438Z" fill="url(#paint0_linear_58_1529)"/>
</g>
<defs>
<linearGradient id="paint0_linear_58_1529" x1="16" y1="0.150635" x2="16" y2="32.1238" gradientUnits="userSpaceOnUse">
<stop stop-color="#FFBF00"/>
<stop offset="1" stop-color="#F2A60C"/>
</linearGradient>
<clipPath id="clip0_58_1529">
<rect width="32" height="31.9732" fill="white" transform="translate(0 0.150635)"/>
</clipPath>
</defs>
</svg>
