<svg width="32" height="33" viewBox="0 0 32 33" fill="none" xmlns="http://www.w3.org/2000/svg">
<path d="M31.3307 8.39162C31.1499 7.71122 30.7934 7.09022 30.2968 6.59081C29.8003 6.0914 29.1811 5.7311 28.5013 5.546C26.0067 4.87323 16 4.87323 16 4.87323C16 4.87323 5.99333 4.87323 3.49733 5.546C2.81788 5.73143 2.19906 6.09186 1.70277 6.59123C1.20648 7.09061 0.850122 7.71144 0.669333 8.39162C0 10.9015 0 16.1371 0 16.1371C0 16.1371 0 21.3727 0.669333 23.8826C0.850115 24.563 1.20663 25.184 1.70319 25.6834C2.19974 26.1828 2.8189 26.5431 3.49867 26.7282C5.99333 27.401 16 27.401 16 27.401C16 27.401 26.0067 27.401 28.5027 26.7282C29.1825 26.5433 29.8017 26.183 30.2983 25.6836C30.7949 25.1841 31.1513 24.563 31.332 23.8826C32 21.3727 32 16.1371 32 16.1371C32 16.1371 32 10.9015 31.3307 8.39162ZM12.7267 20.8904V11.3838L21.0907 16.1371L12.7267 20.8904Z" fill="url(#paint0_linear_58_1531)"/>
<defs>
<linearGradient id="paint0_linear_58_1531" x1="16" y1="4.87323" x2="16" y2="27.401" gradientUnits="userSpaceOnUse">
<stop stop-color="#FFBF00"/>
<stop offset="1" stop-color="#F2A60C"/>
</linearGradient>
</defs>
</svg>
